<mxfile host="app.diagrams.net" agent="Mozilla/5.0 (Windows NT 10.0; Win64; x64) AppleWebKit/537.36 (KHTML, like Gecko) Chrome/129.0.0.0 Safari/537.36" version="24.8.6">
  <diagram name="Trang-1" id="oDWqWKxT_PK0XZUVC8J7">
    <mxGraphModel grid="1" page="1" gridSize="10" guides="1" tooltips="1" connect="1" arrows="1" fold="1" pageScale="1" pageWidth="827" pageHeight="1169" math="0" shadow="0">
      <root>
        <mxCell id="0" />
        <mxCell id="1" parent="0" />
        <mxCell id="Kg8_6u9AEITc99ov_CIF-1" value="&lt;span class=&quot;hljs-keyword&quot;&gt;Start&lt;/span&gt;" style="ellipse;whiteSpace=wrap;html=1;" vertex="1" parent="1">
          <mxGeometry x="320" y="60" width="120" height="80" as="geometry" />
        </mxCell>
        <mxCell id="Kg8_6u9AEITc99ov_CIF-4" value="a &amp;lt; b ?" style="rounded=0;whiteSpace=wrap;html=1;" vertex="1" parent="1">
          <mxGeometry x="320" y="310" width="120" height="60" as="geometry" />
        </mxCell>
        <mxCell id="Kg8_6u9AEITc99ov_CIF-9" value="" style="endArrow=classic;html=1;rounded=0;" edge="1" parent="1" source="Kg8_6u9AEITc99ov_CIF-1">
          <mxGeometry width="50" height="50" relative="1" as="geometry">
            <mxPoint x="390" y="410" as="sourcePoint" />
            <mxPoint x="380" y="190" as="targetPoint" />
            <Array as="points" />
          </mxGeometry>
        </mxCell>
        <mxCell id="Kg8_6u9AEITc99ov_CIF-10" value="" style="endArrow=classic;html=1;rounded=0;" edge="1" parent="1" target="Kg8_6u9AEITc99ov_CIF-4">
          <mxGeometry width="50" height="50" relative="1" as="geometry">
            <mxPoint x="380" y="250" as="sourcePoint" />
            <mxPoint x="440" y="360" as="targetPoint" />
          </mxGeometry>
        </mxCell>
        <mxCell id="Kg8_6u9AEITc99ov_CIF-11" value="" style="endArrow=classic;html=1;rounded=0;exitX=0.5;exitY=1;exitDx=0;exitDy=0;entryX=0.5;entryY=0;entryDx=0;entryDy=0;" edge="1" parent="1" source="Kg8_6u9AEITc99ov_CIF-4" target="Kg8_6u9AEITc99ov_CIF-23">
          <mxGeometry width="50" height="50" relative="1" as="geometry">
            <mxPoint x="390" y="410" as="sourcePoint" />
            <mxPoint x="324" y="426" as="targetPoint" />
          </mxGeometry>
        </mxCell>
        <mxCell id="Kg8_6u9AEITc99ov_CIF-25" value="Yes" style="edgeLabel;html=1;align=center;verticalAlign=middle;resizable=0;points=[];" vertex="1" connectable="0" parent="Kg8_6u9AEITc99ov_CIF-11">
          <mxGeometry x="0.0375" y="-1" relative="1" as="geometry">
            <mxPoint as="offset" />
          </mxGeometry>
        </mxCell>
        <mxCell id="Kg8_6u9AEITc99ov_CIF-12" value="" style="endArrow=classic;html=1;rounded=0;exitX=0.5;exitY=1;exitDx=0;exitDy=0;entryX=0.558;entryY=-0.017;entryDx=0;entryDy=0;entryPerimeter=0;" edge="1" parent="1" source="Kg8_6u9AEITc99ov_CIF-4" target="Kg8_6u9AEITc99ov_CIF-24">
          <mxGeometry width="50" height="50" relative="1" as="geometry">
            <mxPoint x="390" y="410" as="sourcePoint" />
            <mxPoint x="436" y="426" as="targetPoint" />
            <Array as="points" />
          </mxGeometry>
        </mxCell>
        <mxCell id="Kg8_6u9AEITc99ov_CIF-26" value="No" style="edgeLabel;html=1;align=center;verticalAlign=middle;resizable=0;points=[];" vertex="1" connectable="0" parent="Kg8_6u9AEITc99ov_CIF-12">
          <mxGeometry x="0.0731" y="1" relative="1" as="geometry">
            <mxPoint as="offset" />
          </mxGeometry>
        </mxCell>
        <mxCell id="Kg8_6u9AEITc99ov_CIF-15" value="Stop" style="ellipse;whiteSpace=wrap;html=1;" vertex="1" parent="1">
          <mxGeometry x="320" y="545" width="120" height="80" as="geometry" />
        </mxCell>
        <mxCell id="Kg8_6u9AEITc99ov_CIF-18" value="" style="endArrow=classic;html=1;rounded=0;" edge="1" parent="1" source="Kg8_6u9AEITc99ov_CIF-23" target="Kg8_6u9AEITc99ov_CIF-15">
          <mxGeometry width="50" height="50" relative="1" as="geometry">
            <mxPoint x="308.9473684210527" y="591.0526315789473" as="sourcePoint" />
            <mxPoint x="440" y="360" as="targetPoint" />
          </mxGeometry>
        </mxCell>
        <mxCell id="Kg8_6u9AEITc99ov_CIF-19" value="" style="endArrow=classic;html=1;rounded=0;entryX=0.742;entryY=0.075;entryDx=0;entryDy=0;entryPerimeter=0;exitX=0.4;exitY=0.983;exitDx=0;exitDy=0;exitPerimeter=0;" edge="1" parent="1" source="Kg8_6u9AEITc99ov_CIF-24" target="Kg8_6u9AEITc99ov_CIF-15">
          <mxGeometry width="50" height="50" relative="1" as="geometry">
            <mxPoint x="450.79395085066153" y="590.7939508506615" as="sourcePoint" />
            <mxPoint x="440" y="360" as="targetPoint" />
          </mxGeometry>
        </mxCell>
        <mxCell id="Kg8_6u9AEITc99ov_CIF-23" value="a nhỏ hơn" style="shape=parallelogram;perimeter=parallelogramPerimeter;whiteSpace=wrap;html=1;fixedSize=1;" vertex="1" parent="1">
          <mxGeometry x="240" y="450" width="120" height="60" as="geometry" />
        </mxCell>
        <mxCell id="Kg8_6u9AEITc99ov_CIF-24" value="b nhỏ hơn" style="shape=parallelogram;perimeter=parallelogramPerimeter;whiteSpace=wrap;html=1;fixedSize=1;" vertex="1" parent="1">
          <mxGeometry x="400" y="450" width="120" height="60" as="geometry" />
        </mxCell>
        <mxCell id="Kg8_6u9AEITc99ov_CIF-27" value="nhập a,b" style="shape=parallelogram;perimeter=parallelogramPerimeter;whiteSpace=wrap;html=1;fixedSize=1;" vertex="1" parent="1">
          <mxGeometry x="320" y="190" width="120" height="60" as="geometry" />
        </mxCell>
      </root>
    </mxGraphModel>
  </diagram>
</mxfile>
